<?xml version="1.0" encoding="utf-8"?>
<!-- Generator: Adobe Illustrator 23.0.1, SVG Export Plug-In . SVG Version: 6.00 Build 0)  -->
<svg version="1.1" id="Layer_1" xmlns="http://www.w3.org/2000/svg" xmlns:xlink="http://www.w3.org/1999/xlink" x="0px" y="0px"
	 viewBox="0 0 512 512" style="enable-background:new 0 0 512 512;" xml:space="preserve">
<style type="text/css">
	.st0{fill:#E6E525;}
	.st1{fill:#FAED1B;}
	.st2{fill:#231F20;}
</style>
<g>
	<path class="st0" d="M71.4,460.8L30.3,0h451.5l-41.1,460.7L255.7,512L71.4,460.8z"/>
	<path class="st1" d="M405.4,431.4l35.1-393.7H256v435.1L405.4,431.4z"/>
</g>
<g>
	<path class="st2" d="M124.5,208.6l5.1,56.5H256v-56.5H124.5z M119.4,150.7H256V94.2H114.3L119.4,150.7z M256,355.4l-0.2,0.1
		l-62.9-17l-4-45.1H132l7.9,88.7l115.8,32.1l0.3-0.1L256,355.4z"/>
	<path class="st2" d="M255.8,208.6v56.5h69.6l-6.6,73.3l-63,17v58.8l115.9-32.1l0.9-9.5l13.3-148.8l1.4-15.2l10.2-114.4H255.8v56.5
		h79.6l-5.1,57.9H255.8z"/>
</g>
</svg>
