<?xml version="1.0" encoding="utf-8"?>
<!-- Generator: Adobe Illustrator 23.0.1, SVG Export Plug-In . SVG Version: 6.00 Build 0)  -->
<svg version="1.1" id="Layer_1" xmlns="http://www.w3.org/2000/svg" xmlns:xlink="http://www.w3.org/1999/xlink" x="0px" y="0px"
	 viewBox="0 0 96.5 96.5" style="enable-background:new 0 0 96.5 96.5;" xml:space="preserve">
<style type="text/css">
	.st0{fill:#1A1A1A;}
	.st1{fill:#E9E721;}
</style>
<g>
	<path class="st0" d="M80.4,96.5H16.1C7.2,96.5,0,89.3,0,80.4V16.1C0,7.2,7.2,0,16.1,0h64.3c8.9,0,16.1,7.2,16.1,16.1v64.3
		C96.5,89.3,89.3,96.5,80.4,96.5z"/>
	<g>
		<path class="st1" d="M49.4,49.5L26.1,73.2v-8.8l17-17.3l-17-17.3V21h0.4l22.9,24V49.5z"/>
		<path class="st1" d="M73.6,49.5L50.3,73.2v-8.8l17-17.3l-17-17.3V21h0.4l22.9,24V49.5z"/>
	</g>
</g>
</svg>
