<?xml version="1.0" encoding="utf-8"?>
<!-- Generator: Adobe Illustrator 23.0.1, SVG Export Plug-In . SVG Version: 6.00 Build 0)  -->
<svg version="1.1" id="Layer_1" xmlns="http://www.w3.org/2000/svg" xmlns:xlink="http://www.w3.org/1999/xlink" x="0px" y="0px"
	 viewBox="0 0 306.4 67.3" style="enable-background:new 0 0 306.4 67.3;" xml:space="preserve">
<style type="text/css">
	.st0{fill:#E6E6E6;}
	.st1{fill:#E9E721;}
</style>
<g>
	<g>
		<path class="st0" d="M46.9,50.6c0,1.1-0.3,2.1-1,2.8s-1.5,1.1-2.6,1.1H30.5c-1,0-1.9-0.4-2.5-1.1c-0.7-0.7-1-1.6-1-2.8V3.9
			c0-1.1,0.3-2.1,1-2.8C28.7,0.4,29.5,0,30.5,0h12.8c1,0,1.9,0.4,2.6,1.1c0.7,0.7,1,1.6,1,2.8v12.7h-4.4V4.3H31.4v45.9h11.1V36.8
			h4.4V50.6z"/>
		<path class="st0" d="M71.8,50.6c0,2.6-1.2,3.9-3.6,3.9H57.6c-2.4,0-3.6-1.3-3.6-3.9v-26c0-2.6,1.2-3.9,3.6-3.9h10.6
			c2.4,0,3.6,1.3,3.6,3.9V50.6z M67.5,50.4V24.7h-9.3v25.7H67.5z"/>
		<path class="st0" d="M96.1,54.5h-4.2v-0.9c-4.5,0.8-7,1.1-7.5,1.1c-1.8,0-3.3-0.7-4.4-2c-1.1-1.3-1.7-3-1.7-5V27.9
			c0-2.1,0.6-3.8,1.9-5.2c1.3-1.4,2.8-2.1,4.7-2.1h7V0h4.2V54.5z M91.9,50.3V24.7h-5.8c-2.3,0-3.5,1.3-3.5,3.9v18.1
			c0,2.6,1.2,3.9,3.5,3.9C86.6,50.6,88.6,50.5,91.9,50.3z"/>
		<path class="st0" d="M120.2,50.6c0,2.6-1.2,3.9-3.6,3.9h-10.2c-2.4,0-3.6-1.3-3.6-3.9v-26c0-2.6,1.2-3.9,3.6-3.9h10.2
			c2.4,0,3.6,1.3,3.6,3.9v12.2l-1.4,1.6H107v12.2h9.1v-6.2h4.1L120.2,50.6L120.2,50.6z M116.1,34.7V24.5H107v10.2H116.1z"/>
		<path class="st0" d="M147.5,50.6c0,1.1-0.3,2.1-1,2.8s-1.5,1.1-2.6,1.1h-12.8c-1,0-1.9-0.4-2.5-1.1c-0.7-0.7-1-1.6-1-2.8V3.9
			c0-1.1,0.3-2.1,1-2.8c0.7-0.7,1.5-1.1,2.5-1.1h12.8c1,0,1.9,0.4,2.6,1.1s1,1.6,1,2.8v12.7h-4.4V4.3H132v45.9h11.1V36.8h4.4V50.6z"
			/>
		<path class="st0" d="M172.4,50.6c0,2.6-1.2,3.9-3.6,3.9h-10.6c-2.4,0-3.6-1.3-3.6-3.9v-26c0-2.6,1.2-3.9,3.6-3.9h10.6
			c2.4,0,3.6,1.3,3.6,3.9V50.6z M168.1,50.4V24.7h-9.3v25.7H168.1z"/>
		<path class="st0" d="M210.2,54.5H206V24.8l-9.2,0.3v29.4h-4.2V24.8l-9.2,0.3v29.4h-4.2V20.6h4.2v0.9c1.7-0.2,3.3-0.5,5-0.7
			c2-0.3,3.7-0.4,5-0.4s2.2,0.4,2.9,1.3c1.8-0.3,3.5-0.5,5.3-0.8c2.3-0.3,4.1-0.5,5.2-0.5c2.3,0,3.5,1.3,3.5,3.8L210.2,54.5
			L210.2,54.5z"/>
		<path class="st0" d="M234.7,47.2c0,2.1-0.6,3.8-1.9,5.2s-2.8,2.1-4.7,2.1h-7v12.8h-4.2V20.6h4.2v0.9c1.7-0.2,3.3-0.5,5-0.7
			c2.1-0.3,3.8-0.5,5-0.5c2.4,0,3.5,1.3,3.5,3.8L234.7,47.2L234.7,47.2z M230.5,46.5V24.7l-9.3,0.3v25.4h5.8
			C229.3,50.4,230.5,49.1,230.5,46.5z"/>
		<path class="st0" d="M259.1,50.6c0,2.6-1.2,3.9-3.6,3.9h-10.6c-2.4,0-3.6-1.3-3.6-3.9v-26c0-2.6,1.2-3.9,3.6-3.9h10.6
			c2.4,0,3.6,1.3,3.6,3.9V50.6z M254.9,50.4V24.7h-9.3v25.7H254.9z"/>
		<path class="st0" d="M282.5,50.6c0,2.6-1.2,3.9-3.6,3.9h-9.7c-2.4,0-3.6-1.3-3.6-3.9v-7.7h4.2v7.6h8.5v-6.8l-11.1-9.9
			c-1.1-0.9-1.6-2.1-1.6-3.6v-5.6c0-2.6,1.2-3.9,3.6-3.9h9.6c2.4,0,3.6,1.3,3.6,3.9v6.8h-4.1v-6.8h-8.5v5.9l11.2,9.9
			c1,0.9,1.6,2.1,1.6,3.7v6.5H282.5z"/>
		<path class="st0" d="M306.4,50.6c0,2.6-1.2,3.9-3.6,3.9h-10.2c-2.4,0-3.6-1.3-3.6-3.9v-26c0-2.6,1.2-3.9,3.6-3.9h10.2
			c2.4,0,3.6,1.3,3.6,3.9v12.2l-1.4,1.6h-11.8v12.2h9.1v-6.2h4.1L306.4,50.6L306.4,50.6z M302.3,34.7V24.5h-9.1v10.2H302.3z"/>
	</g>
	<g>
		<path class="st1" d="M250.1,38.7l-4.6,11.7v-4.3l3.3-8.5l-3.3-8.6v-4.3h0.1l4.5,11.8V38.7z"/>
		<path class="st1" d="M254.9,38.7l-4.6,11.7v-4.3l3.3-8.5l-3.3-8.6v-4.3h0.1l4.5,11.8V38.7z"/>
	</g>
	<g>
		<path class="st1" d="M11,24.7l-11,12v-4.4l8-8.8l-8-8.8v-4.4h0.2L11,22.4V24.7z"/>
		<path class="st1" d="M22.4,24.7l-11,12v-4.4l8-8.8l-8-8.8v-4.4h0.2l10.8,12.1V24.7z"/>
	</g>
</g>
</svg>
